{"title":"Welcome Back Kotter - Seasons 1 - 4 (XVID)","uid":9472052,"size":17420773392,"categoryP":"video","categoryS":"tv_shows","magnet":"?xt=urn:btih:a662466fcb346d570f10209483dd8384972746cd&amp;dn=Welcome+Back+Kotter+-+Seasons+1+-+4+%28XVID%29&amp;tr=udp%3A%2F%2Ftracker.openbittorrent.com%3A80&amp;tr=udp%3A%2F%2Fopen.demonii.com%3A1337&amp;tr=udp%3A%2F%2Ftracker.coppersurfer.tk%3A6969&amp;tr=udp%3A%2F%2Fexodus.desync.com%3A6969","seeders":3,"leechers":6,"uploader":"Celtoid","files":96,"time":1389601425,"description":"This collection was not authored by me. I created this collection through downloading them. For the most part, the episodes are as below.As far as i know, these are all DVD-Ripped. But there maybe some vidcaps in there.\n\n\nFormat                                   : AVI\nFormat/Info                              : Audio Video Interleave\nFile size                                : 175 MiB\nDuration                                 : 25mn 13s\nOverall bit rate mode                    : Variable\nOverall bit rate                         : 969 Kbps\nWriting application                      : VirtualDubMod 1.5.4.1 (build 2178/release)\nWriting library                          : VirtualDubMod build 2178/release\n\nVideo\nID                                       : 0\nFormat                                   : MPEG-4 Visual\nFormat settings, BVOP                    : 1\nFormat settings, QPel                    : No\nFormat settings, GMC                     : No warppoints\nFormat settings, Matrix                  : Default (H.263)\nMuxing mode                              : Packed bitstream\nCodec ID                                 : DX50\nCodec ID/Hint                            : DivX 5\nDuration                                 : 25mn 13s\nBit rate                                 : 871 Kbps\nWidth                                    : 640 pixels\nHeight                                   : 480 pixels\nDisplay aspect ratio                     : 4:3\nFrame rate                               : 29.970 fps\nColor space                              : YUV\nChroma subsampling                       : 4:2:0\nBit depth                                : 8 bits\nScan type                                : Progressive\nCompression mode                         : Lossy\nBits/(Pixel*Frame)                       : 0.095\nStream size                              : 157 MiB (90%)\nWriting library                          : DivX 5.2.1 (WaffleDay) (UTC 2004-09-08)\n\nAudio\nID                                       : 1\nFormat                                   : MPEG Audio\nFormat version                           : Version 1\nFormat profile                           : Layer 3\nMode                                     : Joint stereo\nMode extension                           : MS Stereo\nCodec ID                                 : 55\nCodec ID/Hint                            : MP3\nDuration                                 : 25mn 13s\nBit rate mode                            : Variable\nBit rate                                 : 84.3 Kbps\nNominal bit rate                         : 128 Kbps\nChannel(s)                               : 2 channels\nSampling rate                            : 48.0 KHz\nCompression mode                         : Lossy\nStream size                              : 15.2 MiB (9%)\nAlignment                                : Aligned on interleaves\nInterleave, duration                     : 24 ms (0.72 video frame)\nInterleave, preload duration             : 218 ms\nWriting library                          : LAME3.98r\nEncoding settings                        : -m j -V 4 -q 2 -lowpass 17 --abr 128","torrent":{"xt":"urn:btih:a662466fcb346d570f10209483dd8384972746cd","amp;dn":"Welcome+Back+Kotter+-+Seasons+1+-+4+%28XVID%29","amp;tr":["udp%3A%2F%2Ftracker.openbittorrent.com%3A80","udp%3A%2F%2Fopen.demonii.com%3A1337","udp%3A%2F%2Ftracker.coppersurfer.tk%3A6969","udp%3A%2F%2Fexodus.desync.com%3A6969"],"infoHash":"a662466fcb346d570f10209483dd8384972746cd","infoHashBuffer":{"type":"Buffer","data":[166,98,70,111,203,52,109,87,15,16,32,148,131,221,131,132,151,39,70,205]},"announce":[],"urlList":[]}}